<mxfile host="app.diagrams.net" modified="2023-02-20T07:01:23.888Z" agent="5.0 (Windows NT 10.0; Win64; x64) AppleWebKit/537.36 (KHTML, like Gecko) Chrome/107.0.0.0 Safari/537.36" etag="0OmxeFw2VZu_RRw6K3-o" version="20.8.20" type="github">
  <diagram name="第 1 页" id="-0YFRCpdr3iKgraQSoxE">
    <mxGraphModel dx="1050" dy="587" grid="1" gridSize="10" guides="1" tooltips="1" connect="1" arrows="1" fold="1" page="1" pageScale="1" pageWidth="827" pageHeight="1169" math="0" shadow="0">
      <root>
        <mxCell id="0" />
        <mxCell id="1" parent="0" />
        <mxCell id="kf9OhZIIlrnRlhNetxFO-1" value="&lt;font style=&quot;font-size: 23px;&quot;&gt;s1&lt;/font&gt;" style="rounded=0;whiteSpace=wrap;html=1;" vertex="1" parent="1">
          <mxGeometry x="130" y="270" width="120" height="60" as="geometry" />
        </mxCell>
        <mxCell id="kf9OhZIIlrnRlhNetxFO-2" value="" style="rounded=1;whiteSpace=wrap;html=1;fontSize=23;" vertex="1" parent="1">
          <mxGeometry x="330" y="210" width="210" height="210" as="geometry" />
        </mxCell>
        <mxCell id="kf9OhZIIlrnRlhNetxFO-3" value="堆" style="text;html=1;align=center;verticalAlign=middle;resizable=0;points=[];autosize=1;strokeColor=none;fillColor=none;fontSize=23;" vertex="1" parent="1">
          <mxGeometry x="480" y="220" width="50" height="40" as="geometry" />
        </mxCell>
        <mxCell id="kf9OhZIIlrnRlhNetxFO-4" value="" style="rounded=0;whiteSpace=wrap;html=1;fontSize=23;" vertex="1" parent="1">
          <mxGeometry x="354" y="240" width="86" height="150" as="geometry" />
        </mxCell>
        <mxCell id="kf9OhZIIlrnRlhNetxFO-5" value="&lt;font style=&quot;font-size: 16px;&quot;&gt;String Pool&lt;/font&gt;" style="text;html=1;align=center;verticalAlign=middle;resizable=0;points=[];autosize=1;strokeColor=none;fillColor=none;fontSize=23;" vertex="1" parent="1">
          <mxGeometry x="347" y="240" width="100" height="40" as="geometry" />
        </mxCell>
        <mxCell id="kf9OhZIIlrnRlhNetxFO-6" value="&quot;hello&quot;" style="ellipse;whiteSpace=wrap;html=1;fontSize=16;" vertex="1" parent="1">
          <mxGeometry x="372" y="340" width="50" height="40" as="geometry" />
        </mxCell>
        <mxCell id="kf9OhZIIlrnRlhNetxFO-7" value="&quot;world&quot;" style="ellipse;whiteSpace=wrap;html=1;fontSize=16;" vertex="1" parent="1">
          <mxGeometry x="372" y="284" width="50" height="40" as="geometry" />
        </mxCell>
        <mxCell id="kf9OhZIIlrnRlhNetxFO-8" style="rounded=0;orthogonalLoop=1;jettySize=auto;html=1;exitX=1;exitY=0.5;exitDx=0;exitDy=0;entryX=0;entryY=0.5;entryDx=0;entryDy=0;fontSize=16;dashed=1;dashPattern=8 8;" edge="1" parent="1" source="kf9OhZIIlrnRlhNetxFO-1" target="kf9OhZIIlrnRlhNetxFO-6">
          <mxGeometry relative="1" as="geometry" />
        </mxCell>
        <mxCell id="kf9OhZIIlrnRlhNetxFO-9" style="edgeStyle=none;rounded=0;orthogonalLoop=1;jettySize=auto;html=1;exitX=1;exitY=0.5;exitDx=0;exitDy=0;entryX=0;entryY=0.5;entryDx=0;entryDy=0;fontSize=16;" edge="1" parent="1" source="kf9OhZIIlrnRlhNetxFO-1" target="kf9OhZIIlrnRlhNetxFO-7">
          <mxGeometry relative="1" as="geometry" />
        </mxCell>
      </root>
    </mxGraphModel>
  </diagram>
</mxfile>
